<mxfile host="65bd71144e">
    <diagram id="Gi0ttCrdFL5mhg9cLiMD" name="Page-1">
        <mxGraphModel dx="1489" dy="762" grid="1" gridSize="10" guides="1" tooltips="1" connect="1" arrows="1" fold="1" page="1" pageScale="1" pageWidth="1169" pageHeight="827" math="0" shadow="0">
            <root>
                <mxCell id="0"/>
                <mxCell id="1" parent="0"/>
                <mxCell id="rhxvTvqGYcH2T3yLTqpI-15" value="" style="rounded=0;whiteSpace=wrap;html=1;fillColor=none;" parent="1" vertex="1">
                    <mxGeometry x="270" y="340" width="380" height="60" as="geometry"/>
                </mxCell>
                <mxCell id="rhxvTvqGYcH2T3yLTqpI-5" value="" style="rounded=0;whiteSpace=wrap;html=1;fillColor=none;" parent="1" vertex="1">
                    <mxGeometry x="320" y="140" width="180" height="60" as="geometry"/>
                </mxCell>
                <mxCell id="rhxvTvqGYcH2T3yLTqpI-1" value="&lt;font color=&quot;#333333&quot;&gt;char&lt;/font&gt;" style="rounded=0;whiteSpace=wrap;html=1;fillColor=#ffe6cc;strokeColor=#d79b00;" parent="1" vertex="1">
                    <mxGeometry x="330" y="150" width="40" height="40" as="geometry"/>
                </mxCell>
                <mxCell id="rhxvTvqGYcH2T3yLTqpI-2" value="char" style="rounded=0;whiteSpace=wrap;html=1;fillColor=#ffe6cc;strokeColor=#d79b00;fontColor=#333333;" parent="1" vertex="1">
                    <mxGeometry x="450" y="150" width="40" height="40" as="geometry"/>
                </mxCell>
                <mxCell id="rhxvTvqGYcH2T3yLTqpI-3" value="" style="endArrow=none;dashed=1;html=1;dashPattern=1 3;strokeWidth=2;rounded=0;" parent="1" edge="1">
                    <mxGeometry width="50" height="50" relative="1" as="geometry">
                        <mxPoint x="390" y="170" as="sourcePoint"/>
                        <mxPoint x="430" y="170" as="targetPoint"/>
                    </mxGeometry>
                </mxCell>
                <mxCell id="rhxvTvqGYcH2T3yLTqpI-7" value="Setor possui 512 bytes" style="text;html=1;align=center;verticalAlign=middle;resizable=0;points=[];autosize=1;strokeColor=none;fillColor=none;" parent="1" vertex="1">
                    <mxGeometry x="320" y="110" width="150" height="30" as="geometry"/>
                </mxCell>
                <mxCell id="rhxvTvqGYcH2T3yLTqpI-8" value="Setor" style="rounded=0;whiteSpace=wrap;html=1;fillColor=#dae8fc;strokeColor=#6c8ebf;fontColor=#333333;" parent="1" vertex="1">
                    <mxGeometry x="280" y="350" width="80" height="40" as="geometry"/>
                </mxCell>
                <mxCell id="rhxvTvqGYcH2T3yLTqpI-9" value="Setor" style="rounded=0;whiteSpace=wrap;html=1;fillColor=#dae8fc;strokeColor=#6c8ebf;fontColor=#333333;" parent="1" vertex="1">
                    <mxGeometry x="400" y="350" width="80" height="40" as="geometry"/>
                </mxCell>
                <mxCell id="rhxvTvqGYcH2T3yLTqpI-11" value="Setor" style="rounded=0;whiteSpace=wrap;html=1;fillColor=#dae8fc;strokeColor=#6c8ebf;fontColor=#333333;" parent="1" vertex="1">
                    <mxGeometry x="560" y="350" width="80" height="40" as="geometry"/>
                </mxCell>
                <mxCell id="rhxvTvqGYcH2T3yLTqpI-14" value="" style="endArrow=none;dashed=1;html=1;dashPattern=1 3;strokeWidth=2;rounded=0;" parent="1" edge="1">
                    <mxGeometry width="50" height="50" relative="1" as="geometry">
                        <mxPoint x="500" y="369.64" as="sourcePoint"/>
                        <mxPoint x="540" y="369.64" as="targetPoint"/>
                    </mxGeometry>
                </mxCell>
                <mxCell id="rhxvTvqGYcH2T3yLTqpI-16" value="Disco possui 256 setores" style="text;html=1;align=center;verticalAlign=middle;resizable=0;points=[];autosize=1;strokeColor=none;fillColor=none;" parent="1" vertex="1">
                    <mxGeometry x="270" y="310" width="160" height="30" as="geometry"/>
                </mxCell>
                <mxCell id="rhxvTvqGYcH2T3yLTqpI-17" value="&lt;h1&gt;&lt;font color=&quot;#333333&quot;&gt;Sector&lt;/font&gt;&lt;/h1&gt;&lt;p&gt;&lt;font color=&quot;#333333&quot;&gt;Criar &lt;b&gt;struct &lt;/b&gt;para representar um setor;&lt;/font&gt;&lt;/p&gt;&lt;p&gt;&lt;font color=&quot;#333333&quot;&gt;Essa estrutura terá uma &lt;b&gt;lista de char&lt;/b&gt;, já que cada char ocupa 1 byte&lt;/font&gt;&lt;/p&gt;&lt;p&gt;&lt;font color=&quot;#333333&quot;&gt;Também deve ter um &lt;b&gt;ponteiro para o próximo setor&lt;/b&gt;&amp;nbsp;que contém os demais dados do arquivo.&lt;/font&gt;&lt;/p&gt;" style="text;html=1;strokeColor=#d79b00;fillColor=#ffe6cc;spacing=5;spacingTop=-20;whiteSpace=wrap;overflow=hidden;rounded=0;" parent="1" vertex="1">
                    <mxGeometry x="40" y="30" width="240" height="170" as="geometry"/>
                </mxCell>
                <mxCell id="rhxvTvqGYcH2T3yLTqpI-18" value="" style="curved=1;endArrow=classic;html=1;rounded=0;entryX=0.5;entryY=0;entryDx=0;entryDy=0;exitX=0.13;exitY=-0.113;exitDx=0;exitDy=0;exitPerimeter=0;" parent="1" source="rhxvTvqGYcH2T3yLTqpI-7" target="rhxvTvqGYcH2T3yLTqpI-17" edge="1">
                    <mxGeometry width="50" height="50" relative="1" as="geometry">
                        <mxPoint x="490" y="290" as="sourcePoint"/>
                        <mxPoint x="540" y="240" as="targetPoint"/>
                        <Array as="points">
                            <mxPoint x="340" y="20"/>
                            <mxPoint x="210"/>
                        </Array>
                    </mxGeometry>
                </mxCell>
                <mxCell id="rhxvTvqGYcH2T3yLTqpI-19" value="&lt;h1&gt;&lt;font color=&quot;#333333&quot;&gt;Disk&lt;/font&gt;&lt;/h1&gt;&lt;p&gt;&lt;font color=&quot;#333333&quot;&gt;Criar &lt;b&gt;struct &lt;/b&gt;para representar um disco;&lt;/font&gt;&lt;/p&gt;&lt;p&gt;&lt;font color=&quot;#333333&quot;&gt;Essa estrutura terá uma &lt;b&gt;lista de setores&lt;/b&gt;&lt;/font&gt;&lt;/p&gt;" style="text;html=1;strokeColor=#6c8ebf;fillColor=#dae8fc;spacing=5;spacingTop=-20;whiteSpace=wrap;overflow=hidden;rounded=0;" parent="1" vertex="1">
                    <mxGeometry x="40" y="270" width="190" height="130" as="geometry"/>
                </mxCell>
                <mxCell id="rhxvTvqGYcH2T3yLTqpI-21" value="" style="curved=1;endArrow=classic;html=1;rounded=0;entryX=0.5;entryY=0;entryDx=0;entryDy=0;exitX=0.188;exitY=0;exitDx=0;exitDy=0;exitPerimeter=0;" parent="1" source="rhxvTvqGYcH2T3yLTqpI-16" target="rhxvTvqGYcH2T3yLTqpI-19" edge="1">
                    <mxGeometry width="50" height="50" relative="1" as="geometry">
                        <mxPoint x="299.5" y="296.61" as="sourcePoint"/>
                        <mxPoint x="145" y="250" as="targetPoint"/>
                        <Array as="points">
                            <mxPoint x="300" y="260"/>
                            <mxPoint x="180" y="230"/>
                        </Array>
                    </mxGeometry>
                </mxCell>
                <mxCell id="3" value="&lt;h1&gt;&lt;font color=&quot;#333333&quot;&gt;File&lt;/font&gt;&lt;/h1&gt;&lt;p&gt;&lt;font color=&quot;#333333&quot;&gt;Conjunto de setores&lt;/font&gt;&lt;/p&gt;&lt;p&gt;&lt;font color=&quot;#333333&quot;&gt;Os setores indicam o conteúdo do arquivo&lt;/font&gt;&lt;/p&gt;" style="text;html=1;strokeColor=#b85450;fillColor=#f8cecc;spacing=5;spacingTop=-20;whiteSpace=wrap;overflow=hidden;rounded=0;align=left;" vertex="1" parent="1">
                    <mxGeometry x="680" y="40" width="160" height="140" as="geometry"/>
                </mxCell>
                <mxCell id="4" value="&lt;h1&gt;&lt;font color=&quot;#333333&quot;&gt;Folder&lt;/font&gt;&lt;/h1&gt;&lt;div&gt;&lt;font color=&quot;#333333&quot;&gt;- Qtd. setores: 1&lt;/font&gt;&lt;/div&gt;&lt;div&gt;&lt;font color=&quot;#333333&quot;&gt;- Conteúdo: FolderContent, separados por vírgula&lt;/font&gt;&lt;/div&gt;&lt;div&gt;&lt;font color=&quot;#333333&quot;&gt;&lt;span&gt;- Ação:&lt;/span&gt;&lt;br&gt;&lt;/font&gt;&lt;/div&gt;&lt;div&gt;&lt;span&gt;&lt;font color=&quot;#333333&quot;&gt;&lt;span style=&quot;white-space: pre&quot;&gt;&#9;&lt;/span&gt;Quando lido, mapear cada unidade de FolderContent para uma estrutura, e deixar em memória&lt;/font&gt;&lt;br&gt;&lt;/span&gt;&lt;/div&gt;" style="text;html=1;strokeColor=#b85450;fillColor=#f8cecc;spacing=5;spacingTop=-20;whiteSpace=wrap;overflow=hidden;rounded=0;" vertex="1" parent="1">
                    <mxGeometry x="720" y="340" width="200" height="180" as="geometry"/>
                </mxCell>
                <mxCell id="6" value="&lt;h1&gt;&lt;span style=&quot;color: rgb(51 , 51 , 51)&quot;&gt;FolderContent&lt;/span&gt;&lt;/h1&gt;&lt;div&gt;&lt;font color=&quot;#333333&quot;&gt;* Tipo&lt;span style=&quot;white-space: pre&quot;&gt;&#9;&lt;/span&gt;&lt;span style=&quot;white-space: pre&quot;&gt;&#9;&lt;/span&gt;[1 char]&lt;/font&gt;&lt;/div&gt;&lt;div&gt;&lt;font color=&quot;#333333&quot;&gt;* Nome&lt;span style=&quot;white-space: pre&quot;&gt;&#9;&lt;/span&gt;&lt;span style=&quot;white-space: pre&quot;&gt;&#9;&lt;/span&gt;[n char]&lt;/font&gt;&lt;/div&gt;&lt;div&gt;&lt;font color=&quot;#333333&quot;&gt;* Tamanho&lt;span style=&quot;white-space: pre&quot;&gt;&#9;&lt;/span&gt;[1 int -&amp;gt; 4 char]&lt;/font&gt;&lt;/div&gt;&lt;div&gt;&lt;font color=&quot;#333333&quot;&gt;* Data criação&lt;/font&gt;&lt;/div&gt;&lt;div&gt;&lt;br&gt;&lt;/div&gt;" style="text;html=1;strokeColor=#b85450;fillColor=#f8cecc;spacing=5;spacingTop=-20;whiteSpace=wrap;overflow=hidden;rounded=0;" vertex="1" parent="1">
                    <mxGeometry x="960" y="240" width="200" height="140" as="geometry"/>
                </mxCell>
                <mxCell id="7" value="&lt;h1&gt;&lt;font color=&quot;#333333&quot;&gt;/&lt;/font&gt;&lt;/h1&gt;&lt;div&gt;&lt;font color=&quot;#333333&quot;&gt;&quot;1255user2001407222134&quot;&lt;/font&gt;&lt;/div&gt;" style="text;html=1;strokeColor=#b85450;fillColor=#f8cecc;spacing=5;spacingTop=-20;whiteSpace=wrap;overflow=hidden;rounded=0;" vertex="1" parent="1">
                    <mxGeometry x="340" y="510" width="200" height="180" as="geometry"/>
                </mxCell>
            </root>
        </mxGraphModel>
    </diagram>
</mxfile>